<svg width="64" height="62" viewBox="0 0 64 62" fill="none" xmlns="http://www.w3.org/2000/svg">
<path d="M31.5245 2.31762C31.6741 1.85698 32.3259 1.85696 32.4755 2.31763L38.6559 21.3389C39.1245 22.781 40.4683 23.7574 41.9846 23.7574H61.9848C62.4691 23.7574 62.6705 24.3772 62.2787 24.6619L46.0982 36.4177C44.8715 37.3089 44.3582 38.8887 44.8268 40.3308L51.0071 59.3521C51.1568 59.8127 50.6296 60.1958 50.2377 59.9111L34.0572 48.1553C32.8305 47.264 31.1695 47.264 29.9428 48.1553L13.7623 59.9111C13.3704 60.1958 12.8432 59.8127 12.9929 59.3521L19.1732 40.3308C19.6418 38.8887 19.1285 37.3089 17.9018 36.4177L1.72132 24.6619C1.32947 24.3772 1.53084 23.7574 2.01522 23.7574H22.0154C23.5317 23.7574 24.8755 22.781 25.3441 21.3389L31.5245 2.31762Z" fill="#E0E0E0" stroke="#E0E0E0" stroke-width="3"/>
</svg>
