<svg width="75" height="75" viewBox="0 0 75 75" fill="none" xmlns="http://www.w3.org/2000/svg">
<path d="M56.6667 37.5H18.3333M52.8333 50.9167C52.8333 50.9167 49 49 45.1667 49C39.4167 49 35.5833 52.8333 29.8333 52.8333C26 52.8333 22.1667 50.9167 22.1667 50.9167M52.8333 24.0833C52.8333 24.0833 49 22.1667 45.1667 22.1667C39.4167 22.1667 35.5833 26 29.8333 26C26 26 22.1667 24.0833 22.1667 24.0833M3 37.5C3 18.446 18.446 3 37.5 3C56.5538 3 72 18.446 72 37.5C72 56.5538 56.5538 72 37.5 72C18.446 72 3 56.5538 3 37.5Z" stroke="#EF4444" stroke-width="5.3" stroke-linecap="round" stroke-linejoin="round"/>
</svg>
