<svg width="593" height="474" viewBox="0 0 593 474" style="width:100%;height:auto" preserveAspectRatio="xMinYMin meet" fill="none" xmlns="http://www.w3.org/2000/svg"><path d="M166.464 265.952V189.452L272.464 125.952V204.952" fill="#207CE5"></path><path d="M166.464 62.7849V139.285L272.464 202.785V123.785" fill="#499CEA"></path><path d="M166.464 188.452V264.952L272.464 328.452V249.452" fill="#499CEA"></path><path d="M73.1299 256.959L80.7969 261.125V337.125L73.1299 332.459" fill="#499CEA"></path><path d="M167.464 311.452L96.6299 269.949V346.118L167.464 388.285" fill="#499CEA"></path><path d="M84.9641 263.792V339.459L91.9641 343.126V267.959" fill="#499CEA"></path><path d="M272.464 327.285V248.285L166.464 311.785V388.285" fill="#207CE5"></path><path d="M401.239 271.473V194.972L507.239 131.472V210.472" fill="#207CE5"></path><path d="M401.239 68.3049V144.805L507.239 208.305V129.305" fill="#499CEA"></path><path d="M401.239 193.972V270.473L507.239 333.972V254.973" fill="#499CEA"></path><path d="M307.904 262.479L315.573 266.645V342.645L307.904 337.979" fill="#499CEA"></path><path d="M402.239 316.972L331.404 275.469V351.638L402.239 393.805" fill="#499CEA"></path><path d="M319.739 269.313V344.979L326.739 348.646V273.479" fill="#499CEA"></path><path d="M507.239 332.805V253.805L401.239 317.305V393.805" fill="#207CE5"></path><path d="M307.904 199.631L315.573 195.465V119.465L307.904 124.131" fill="#499CEA"></path><path d="M402.239 145.138L331.404 186.641V110.472L402.239 68.3049" fill="#499CEA"></path><path d="M319.739 192.798V117.131L326.739 113.464V188.631" fill="#499CEA"></path></svg>