<svg width="327" height="75" viewBox="0 0 327 75" fill="none" xmlns="http://www.w3.org/2000/svg">
<path d="M112.344 45.5586C112.344 45.0508 112.266 44.5951 112.109 44.1914C111.966 43.7747 111.693 43.3971 111.289 43.0586C110.885 42.707 110.319 42.362 109.59 42.0234C108.861 41.6849 107.917 41.3333 106.758 40.9688C105.469 40.5521 104.245 40.0833 103.086 39.5625C101.94 39.0417 100.924 38.4362 100.039 37.7461C99.1667 37.043 98.4766 36.2292 97.9688 35.3047C97.474 34.3802 97.2266 33.306 97.2266 32.082C97.2266 30.8971 97.487 29.8229 98.0078 28.8594C98.5286 27.8828 99.2578 27.0495 100.195 26.3594C101.133 25.6562 102.24 25.1159 103.516 24.7383C104.805 24.3607 106.217 24.1719 107.754 24.1719C109.85 24.1719 111.68 24.5495 113.242 25.3047C114.805 26.0599 116.016 27.0951 116.875 28.4102C117.747 29.7253 118.184 31.2292 118.184 32.9219H112.363C112.363 32.0885 112.188 31.3594 111.836 30.7344C111.497 30.0964 110.977 29.5951 110.273 29.2305C109.583 28.8659 108.711 28.6836 107.656 28.6836C106.641 28.6836 105.794 28.8398 105.117 29.1523C104.44 29.4518 103.932 29.862 103.594 30.3828C103.255 30.8906 103.086 31.4635 103.086 32.1016C103.086 32.5833 103.203 33.0195 103.438 33.4102C103.685 33.8008 104.049 34.1654 104.531 34.5039C105.013 34.8424 105.605 35.1615 106.309 35.4609C107.012 35.7604 107.826 36.0534 108.75 36.3398C110.299 36.8086 111.66 37.3359 112.832 37.9219C114.017 38.5078 115.007 39.1654 115.801 39.8945C116.595 40.6237 117.194 41.4505 117.598 42.375C118.001 43.2995 118.203 44.3477 118.203 45.5195C118.203 46.7565 117.962 47.8633 117.48 48.8398C116.999 49.8164 116.302 50.6432 115.391 51.3203C114.479 51.9974 113.392 52.5117 112.129 52.8633C110.866 53.2148 109.453 53.3906 107.891 53.3906C106.484 53.3906 105.098 53.2083 103.73 52.8438C102.363 52.4661 101.12 51.8997 100 51.1445C98.8932 50.3893 98.0078 49.4258 97.3438 48.2539C96.6797 47.082 96.3477 45.6953 96.3477 44.0938H102.227C102.227 44.9792 102.363 45.7279 102.637 46.3398C102.91 46.9518 103.294 47.4466 103.789 47.8242C104.297 48.2018 104.896 48.4753 105.586 48.6445C106.289 48.8138 107.057 48.8984 107.891 48.8984C108.906 48.8984 109.74 48.7552 110.391 48.4688C111.055 48.1823 111.543 47.7852 111.855 47.2773C112.181 46.7695 112.344 46.1966 112.344 45.5586ZM132.441 47.0625L139.141 24.5625H145.664L135.762 53H131.465L132.441 47.0625ZM126.27 24.5625L132.949 47.0625L133.965 53H129.629L119.785 24.5625H126.27ZM170.586 38.1367V49.4062C170.143 49.9401 169.46 50.5195 168.535 51.1445C167.611 51.7565 166.419 52.2839 164.961 52.7266C163.503 53.1693 161.738 53.3906 159.668 53.3906C157.832 53.3906 156.159 53.0911 154.648 52.4922C153.138 51.8802 151.836 50.9883 150.742 49.8164C149.661 48.6445 148.828 47.2122 148.242 45.5195C147.656 43.8138 147.363 41.8672 147.363 39.6797V37.9023C147.363 35.7148 147.643 33.7682 148.203 32.0625C148.776 30.3568 149.59 28.918 150.645 27.7461C151.699 26.5742 152.956 25.6823 154.414 25.0703C155.872 24.4583 157.493 24.1523 159.277 24.1523C161.751 24.1523 163.783 24.556 165.371 25.3633C166.96 26.1576 168.171 27.2643 169.004 28.6836C169.85 30.0898 170.371 31.7044 170.566 33.5273H164.883C164.74 32.5638 164.466 31.724 164.062 31.0078C163.659 30.2917 163.079 29.7318 162.324 29.3281C161.582 28.9245 160.618 28.7227 159.434 28.7227C158.457 28.7227 157.585 28.9245 156.816 29.3281C156.061 29.7188 155.423 30.2982 154.902 31.0664C154.382 31.8346 153.984 32.7852 153.711 33.918C153.438 35.0508 153.301 36.3659 153.301 37.8633V39.6797C153.301 41.1641 153.444 42.4792 153.73 43.625C154.017 44.7578 154.44 45.7148 155 46.4961C155.573 47.2643 156.276 47.8438 157.109 48.2344C157.943 48.625 158.913 48.8203 160.02 48.8203C160.944 48.8203 161.712 48.7422 162.324 48.5859C162.949 48.4297 163.451 48.2409 163.828 48.0195C164.219 47.7852 164.518 47.5638 164.727 47.3555V42.3164H159.375V38.1367H170.586ZM196.934 24.5625V53H191.094V24.5625H196.934ZM205.684 24.5625V29.1523H182.48V24.5625H205.684ZM231.836 38.1172V39.4648C231.836 41.6263 231.543 43.5664 230.957 45.2852C230.371 47.0039 229.544 48.4688 228.477 49.6797C227.409 50.8776 226.133 51.7956 224.648 52.4336C223.177 53.0716 221.543 53.3906 219.746 53.3906C217.962 53.3906 216.328 53.0716 214.844 52.4336C213.372 51.7956 212.096 50.8776 211.016 49.6797C209.935 48.4688 209.095 47.0039 208.496 45.2852C207.91 43.5664 207.617 41.6263 207.617 39.4648V38.1172C207.617 35.9427 207.91 34.0026 208.496 32.2969C209.082 30.5781 209.909 29.1133 210.977 27.9023C212.057 26.6914 213.333 25.7669 214.805 25.1289C216.289 24.4909 217.923 24.1719 219.707 24.1719C221.504 24.1719 223.138 24.4909 224.609 25.1289C226.094 25.7669 227.37 26.6914 228.438 27.9023C229.518 29.1133 230.352 30.5781 230.938 32.2969C231.536 34.0026 231.836 35.9427 231.836 38.1172ZM225.918 39.4648V38.0781C225.918 36.5677 225.781 35.2396 225.508 34.0938C225.234 32.9479 224.831 31.9844 224.297 31.2031C223.763 30.4219 223.112 29.8359 222.344 29.4453C221.576 29.0417 220.697 28.8398 219.707 28.8398C218.717 28.8398 217.839 29.0417 217.07 29.4453C216.315 29.8359 215.671 30.4219 215.137 31.2031C214.616 31.9844 214.219 32.9479 213.945 34.0938C213.672 35.2396 213.535 36.5677 213.535 38.0781V39.4648C213.535 40.9622 213.672 42.2904 213.945 43.4492C214.219 44.5951 214.622 45.5651 215.156 46.3594C215.69 47.1406 216.341 47.7331 217.109 48.1367C217.878 48.5404 218.757 48.7422 219.746 48.7422C220.736 48.7422 221.615 48.5404 222.383 48.1367C223.151 47.7331 223.796 47.1406 224.316 46.3594C224.837 45.5651 225.234 44.5951 225.508 43.4492C225.781 42.2904 225.918 40.9622 225.918 39.4648ZM262.5 43.5664H268.34C268.223 45.4805 267.695 47.1797 266.758 48.6641C265.833 50.1484 264.538 51.3073 262.871 52.1406C261.217 52.974 259.225 53.3906 256.895 53.3906C255.072 53.3906 253.438 53.0781 251.992 52.4531C250.547 51.8151 249.31 50.9036 248.281 49.7188C247.266 48.5339 246.491 47.1016 245.957 45.4219C245.423 43.7422 245.156 41.8607 245.156 39.7773V37.8047C245.156 35.7214 245.43 33.8398 245.977 32.1602C246.536 30.4674 247.331 29.0286 248.359 27.8438C249.401 26.6589 250.645 25.7474 252.09 25.1094C253.535 24.4714 255.15 24.1523 256.934 24.1523C259.303 24.1523 261.302 24.582 262.93 25.4414C264.57 26.3008 265.84 27.4857 266.738 28.9961C267.65 30.5065 268.197 32.2253 268.379 34.1523H262.52C262.454 33.0065 262.227 32.0365 261.836 31.2422C261.445 30.4349 260.853 29.8294 260.059 29.4258C259.277 29.0091 258.236 28.8008 256.934 28.8008C255.957 28.8008 255.104 28.9831 254.375 29.3477C253.646 29.7122 253.034 30.2656 252.539 31.0078C252.044 31.75 251.673 32.6875 251.426 33.8203C251.191 34.9401 251.074 36.2552 251.074 37.7656V39.7773C251.074 41.2487 251.185 42.5443 251.406 43.6641C251.628 44.7708 251.966 45.7083 252.422 46.4766C252.891 47.2318 253.49 47.8047 254.219 48.1953C254.961 48.5729 255.853 48.7617 256.895 48.7617C258.118 48.7617 259.128 48.5664 259.922 48.1758C260.716 47.7852 261.322 47.2057 261.738 46.4375C262.168 45.6693 262.422 44.7122 262.5 43.5664ZM286.992 45.5586C286.992 45.0508 286.914 44.5951 286.758 44.1914C286.615 43.7747 286.341 43.3971 285.938 43.0586C285.534 42.707 284.967 42.362 284.238 42.0234C283.509 41.6849 282.565 41.3333 281.406 40.9688C280.117 40.5521 278.893 40.0833 277.734 39.5625C276.589 39.0417 275.573 38.4362 274.688 37.7461C273.815 37.043 273.125 36.2292 272.617 35.3047C272.122 34.3802 271.875 33.306 271.875 32.082C271.875 30.8971 272.135 29.8229 272.656 28.8594C273.177 27.8828 273.906 27.0495 274.844 26.3594C275.781 25.6562 276.888 25.1159 278.164 24.7383C279.453 24.3607 280.866 24.1719 282.402 24.1719C284.499 24.1719 286.328 24.5495 287.891 25.3047C289.453 26.0599 290.664 27.0951 291.523 28.4102C292.396 29.7253 292.832 31.2292 292.832 32.9219H287.012C287.012 32.0885 286.836 31.3594 286.484 30.7344C286.146 30.0964 285.625 29.5951 284.922 29.2305C284.232 28.8659 283.359 28.6836 282.305 28.6836C281.289 28.6836 280.443 28.8398 279.766 29.1523C279.089 29.4518 278.581 29.862 278.242 30.3828C277.904 30.8906 277.734 31.4635 277.734 32.1016C277.734 32.5833 277.852 33.0195 278.086 33.4102C278.333 33.8008 278.698 34.1654 279.18 34.5039C279.661 34.8424 280.254 35.1615 280.957 35.4609C281.66 35.7604 282.474 36.0534 283.398 36.3398C284.948 36.8086 286.309 37.3359 287.48 37.9219C288.665 38.5078 289.655 39.1654 290.449 39.8945C291.243 40.6237 291.842 41.4505 292.246 42.375C292.65 43.2995 292.852 44.3477 292.852 45.5195C292.852 46.7565 292.611 47.8633 292.129 48.8398C291.647 49.8164 290.951 50.6432 290.039 51.3203C289.128 51.9974 288.04 52.5117 286.777 52.8633C285.514 53.2148 284.102 53.3906 282.539 53.3906C281.133 53.3906 279.746 53.2083 278.379 52.8438C277.012 52.4661 275.768 51.8997 274.648 51.1445C273.542 50.3893 272.656 49.4258 271.992 48.2539C271.328 47.082 270.996 45.6953 270.996 44.0938H276.875C276.875 44.9792 277.012 45.7279 277.285 46.3398C277.559 46.9518 277.943 47.4466 278.438 47.8242C278.945 48.2018 279.544 48.4753 280.234 48.6445C280.938 48.8138 281.706 48.8984 282.539 48.8984C283.555 48.8984 284.388 48.7552 285.039 48.4688C285.703 48.1823 286.191 47.7852 286.504 47.2773C286.829 46.7695 286.992 46.1966 286.992 45.5586ZM311.641 45.5586C311.641 45.0508 311.562 44.5951 311.406 44.1914C311.263 43.7747 310.99 43.3971 310.586 43.0586C310.182 42.707 309.616 42.362 308.887 42.0234C308.158 41.6849 307.214 41.3333 306.055 40.9688C304.766 40.5521 303.542 40.0833 302.383 39.5625C301.237 39.0417 300.221 38.4362 299.336 37.7461C298.464 37.043 297.773 36.2292 297.266 35.3047C296.771 34.3802 296.523 33.306 296.523 32.082C296.523 30.8971 296.784 29.8229 297.305 28.8594C297.826 27.8828 298.555 27.0495 299.492 26.3594C300.43 25.6562 301.536 25.1159 302.812 24.7383C304.102 24.3607 305.514 24.1719 307.051 24.1719C309.147 24.1719 310.977 24.5495 312.539 25.3047C314.102 26.0599 315.312 27.0951 316.172 28.4102C317.044 29.7253 317.48 31.2292 317.48 32.9219H311.66C311.66 32.0885 311.484 31.3594 311.133 30.7344C310.794 30.0964 310.273 29.5951 309.57 29.2305C308.88 28.8659 308.008 28.6836 306.953 28.6836C305.938 28.6836 305.091 28.8398 304.414 29.1523C303.737 29.4518 303.229 29.862 302.891 30.3828C302.552 30.8906 302.383 31.4635 302.383 32.1016C302.383 32.5833 302.5 33.0195 302.734 33.4102C302.982 33.8008 303.346 34.1654 303.828 34.5039C304.31 34.8424 304.902 35.1615 305.605 35.4609C306.309 35.7604 307.122 36.0534 308.047 36.3398C309.596 36.8086 310.957 37.3359 312.129 37.9219C313.314 38.5078 314.303 39.1654 315.098 39.8945C315.892 40.6237 316.491 41.4505 316.895 42.375C317.298 43.2995 317.5 44.3477 317.5 45.5195C317.5 46.7565 317.259 47.8633 316.777 48.8398C316.296 49.8164 315.599 50.6432 314.688 51.3203C313.776 51.9974 312.689 52.5117 311.426 52.8633C310.163 53.2148 308.75 53.3906 307.188 53.3906C305.781 53.3906 304.395 53.2083 303.027 52.8438C301.66 52.4661 300.417 51.8997 299.297 51.1445C298.19 50.3893 297.305 49.4258 296.641 48.2539C295.977 47.082 295.645 45.6953 295.645 44.0938H301.523C301.523 44.9792 301.66 45.7279 301.934 46.3398C302.207 46.9518 302.591 47.4466 303.086 47.8242C303.594 48.2018 304.193 48.4753 304.883 48.6445C305.586 48.8138 306.354 48.8984 307.188 48.8984C308.203 48.8984 309.036 48.7552 309.688 48.4688C310.352 48.1823 310.84 47.7852 311.152 47.2773C311.478 46.7695 311.641 46.1966 311.641 45.5586Z" fill="white"/>
<path d="M56.6667 37.5H18.3333M52.8333 50.9167C52.8333 50.9167 49 49 45.1667 49C39.4167 49 35.5833 52.8333 29.8333 52.8333C26 52.8333 22.1667 50.9167 22.1667 50.9167M52.8333 24.0833C52.8333 24.0833 49 22.1667 45.1667 22.1667C39.4167 22.1667 35.5833 26 29.8333 26C26 26 22.1667 24.0833 22.1667 24.0833M3 37.5C3 18.446 18.446 3 37.5 3C56.5538 3 72 18.446 72 37.5C72 56.5538 56.5538 72 37.5 72C18.446 72 3 56.5538 3 37.5Z" stroke="white" stroke-width="5.3" stroke-linecap="round" stroke-linejoin="round"/>
</svg>
